<?xml version="1.0" encoding="UTF-8"?>
<svg width="84.512" height="42.6" version="1.0" xmlns="http://www.w3.org/2000/svg">
 <g transform="translate(-4.7213e-5 -23.4)">
  <path d="m48.645 58.096v-33.588" style="fill:none;stroke-width:1.5;stroke:#000000"/>
  <rect transform="scale(-1)" x="-84.512" y="-27.746" width="71.554" height="4.3462" style="fill-rule:evenodd;fill:#000000;opacity:.9"/>
  <path d="m13.602 58.096v-33.588" style="fill:none;stroke-width:1.5;stroke:#000000"/>
  <g>
   <path d="m80.054 64.428c3.3958-1.82 5.2053-5.1146 4.0922-7.593-1.1873-2.6436-5.267-3.3897-9.1066-1.6654-3.8396 1.7244-5.9922 5.2694-4.8049 7.913 1.1873 2.6436 5.267 3.3897 9.1066 1.6654 0.23997-0.10777 0.48628-0.19874 0.71268-0.32007z" style="fill-rule:evenodd;fill:#000000;opacity:.9"/>
   <path d="m83.687 58.094v-33.588" style="fill:none;stroke-width:1.5;stroke:#000000"/>
   <path d="m45.114 64.254c3.3958-1.82 5.2053-5.1146 4.0922-7.593-1.1873-2.6436-5.267-3.3897-9.1066-1.6654-3.8396 1.7244-5.9922 5.2694-4.8049 7.913 1.1873 2.6436 5.267 3.3897 9.1066 1.6654 0.23997-0.10777 0.48628-0.19874 0.71268-0.32007z" style="fill-rule:evenodd;fill:#000000;opacity:.9"/>
   <path d="m10.146 64.751c3.3958-1.82 5.2053-5.1146 4.0922-7.593-1.1873-2.6436-5.267-3.3897-9.1066-1.6654-3.8396 1.7244-5.9922 5.2694-4.8049 7.913 1.1873 2.6436 5.267 3.3897 9.1066 1.6654 0.23997-0.10777 0.48628-0.19874 0.71268-0.32007z" style="fill-rule:evenodd;fill:#000000;opacity:.9"/>
  </g>
 </g>
</svg>
