<?xml version="1.0" encoding="UTF-8"?>
<svg width="60.22" height="42.63" version="1.0" xmlns="http://www.w3.org/2000/svg">
 <g transform="matrix(-1 0 0 -1 539.03 260.86)">
  <path d="m483.27 219.83c-3.3958 1.82-5.2053 5.1146-4.0922 7.593 1.1873 2.6436 5.267 3.3897 9.1066 1.6654 3.8396-1.7244 5.9922-5.2694 4.8049-7.913-1.1873-2.6436-5.267-3.3897-9.1066-1.6654-0.23997 0.10777-0.48628 0.19874-0.71268 0.32007z" style="fill-rule:evenodd;fill:#000000;opacity:.9;stroke-width:.2"/>
  <path d="m479.64 226.17v33.588" style="fill:none;stroke-width:1.5;stroke:#000000"/>
  <path d="m528.88 219.48c-3.3958 1.82-5.2053 5.1146-4.0922 7.593 1.1873 2.6436 5.267 3.3897 9.1066 1.6654 3.8396-1.7244 5.9922-5.2694 4.8049-7.913-1.1873-2.6436-5.267-3.3897-9.1066-1.6654-0.23997 0.10777-0.48628 0.19874-0.71268 0.32007z" style="fill-rule:evenodd;fill:#000000;opacity:.9;stroke-width:.2"/>
  <path d="m525.25 225.81v33.588" style="fill:none;stroke-width:1.5;stroke:#000000"/>
  <rect x="478.81" y="256.51" width="47.212" height="4.3462" style="fill-rule:evenodd;fill:#000000;opacity:.9;stroke-width:.5"/>
 </g>
</svg>
