<?xml version="1.0" encoding="UTF-8"?>
<svg width="113.96" height="42.436" version="1.0" xmlns="http://www.w3.org/2000/svg">
 <g transform="rotate(180 314.74 217.74)">
  <g transform="translate(.62934 -.62934)">
   <g transform="translate(216.24 95.294)">
    <path d="m303.07 299.64c-3.3958 1.82-5.2053 5.1146-4.0922 7.593 1.1873 2.6436 5.267 3.3897 9.1066 1.6654 3.8396-1.7244 5.9922-5.2694 4.8049-7.913-1.1873-2.6436-5.267-3.3897-9.1066-1.6654-0.23997 0.10777-0.48628 0.19874-0.71268 0.32007z" style="fill-rule:evenodd;fill:#000000"/>
    <path d="m299.4 305.82v33.747" style="fill:none;stroke-width:1.5;stroke:#000000"/>
   </g>
   <g>
    <g transform="translate(249.79 95.19)">
     <path d="m303.03 299.74c-3.3958 1.82-5.2053 5.1146-4.0922 7.593 1.1873 2.6436 5.267 3.3897 9.1066 1.6654 3.8396-1.7244 5.9922-5.2694 4.8049-7.913-1.1873-2.6436-5.267-3.3897-9.1066-1.6654-0.23997 0.10777-0.48628 0.19874-0.71268 0.32007z" style="fill-rule:evenodd;fill:#000000"/>
     <path d="m299.36 305.93v33.643" style="fill:none;stroke-width:1.5;stroke:#000000"/>
    </g>
   </g>
   <rect x="514.9" y="422.72" width="100.41" height="4.6" style="fill-rule:evenodd;fill:#000000"/>
   <rect x="514.9" y="431.52" width="100.79" height="4.6" style="fill-rule:evenodd;fill:#000000"/>
   <g transform="translate(283.45 95.267)">
    <path d="m303.03 299.74c-3.3958 1.82-5.2053 5.1146-4.0922 7.593 1.1873 2.6436 5.267 3.3897 9.1066 1.6654 3.8396-1.7244 5.9922-5.2694 4.8049-7.913-1.1873-2.6436-5.267-3.3897-9.1066-1.6654-0.23997 0.10777-0.48628 0.19874-0.71268 0.32007z" style="fill-rule:evenodd;fill:#000000"/>
    <path d="m299.36 305.93v33.643" style="fill:none;stroke-width:1.5;stroke:#000000"/>
   </g>
   <g transform="translate(315.68 95.192)">
    <path d="m303.03 299.74c-3.3958 1.82-5.2053 5.1146-4.0922 7.593 1.1873 2.6436 5.267 3.3897 9.1066 1.6654 3.8396-1.7244 5.9922-5.2694 4.8049-7.913-1.1873-2.6436-5.267-3.3897-9.1066-1.6654-0.23997 0.10777-0.48628 0.19874-0.71268 0.32007z" style="fill-rule:evenodd;fill:#000000"/>
    <path d="m299.36 305.93v33.643" style="fill:none;stroke-width:1.5;stroke:#000000"/>
   </g>
  </g>
 </g>
</svg>
